<?xml version="1.0" encoding="UTF-8" standalone="no"?>
<!DOCTYPE svg PUBLIC "-//W3C//DTD SVG 20010904//EN" "http://www.w3.org/TR/2001/REC-SVG-20010904/DTD/svg10.dtd">
<svg version="1.0" xmlns="http://www.w3.org/2000/svg" width="32.000000pt" height="32.000000pt" viewBox="0 0 436.000000 436.000000" preserveAspectRatio="xMidYMid meet">
<metadata>
Created by potrace 1.12, written by Peter Selinger 2001-2015
</metadata>
<g transform="translate(0.000000,436.000000) scale(0.100000,-0.100000)" fill="#000000" stroke="none">
<path d="M1330 3948 l0 -203 115 0 115 0 0 203 0 202 -115 0 -115 0 0 -202z"/>
<path d="M733 3957 l-92 -53 94 -163 c52 -90 98 -168 103 -173 7 -7 79 29 181 90 12 7 -5 43 -84 180 -55 95 -102 172 -105 172 -3 0 -46 -24 -97 -53z"/>
<path d="M2036 3988 c-22 -36 -154 -265 -171 -298 l-15 -30 52 -26 c29 -15 72 -40 95 -55 l42 -29 42 72 c23 40 69 119 102 176 33 57 58 105 56 107 -6 6 -180 105 -185 105 -2 0 -10 -10 -18 -22z"/>
<path d="M221 3443 c-44 -77 -51 -97 -40 -104 47 -31 331 -191 333 -188 2 2 14 24 26 49 13 25 36 65 52 88 17 24 26 48 22 52 -8 8 -142 87 -284 167 l-55 31 -54 -95z"/>
<path d="M1341 3530 c-509 -69 -822 -579 -652 -1061 32 -91 77 -167 147 -253 l51 -62 -39 -49 c-52 -64 -104 -175 -119 -253 -17 -88 -7 -251 21 -329 60 -170 202 -311 380 -375 l65 -23 1230 -3 c868 -2 1249 0 1295 8 132 23 279 100 378 199 266 266 283 691 39 979 -53 64 -136 132 -199 166 l-35 19 -7 89 c-42 556 -521 978 -1071 945 -250 -16 -468 -113 -653 -291 l-63 -61 -22 30 c-73 102 -194 201 -308 255 -128 59 -305 88 -438 70z m239 -257 c140 -38 289 -158 353 -283 l28 -55 -92 -7 c-102 -8 -183 -27 -271 -62 -216 -88 -399 -287 -473 -516 -10 -30 -19 -56 -20 -58 -7 -8 -104 105 -137 160 -57 93 -82 177 -82 283 -2 362 347 633 694 538z m1499 -13 c371 -103 617 -464 570 -836 -6 -52 -9 -97 -7 -100 3 -2 31 -11 63 -19 170 -45 303 -182 350 -361 39 -152 -10 -319 -131 -440 -66 -67 -155 -116 -237 -134 -36 -7 -420 -10 -1252 -8 l-1200 3 -57 27 c-74 34 -152 112 -186 186 -23 49 -27 70 -27 147 0 77 4 98 27 147 52 111 172 201 286 215 l49 5 6 67 c8 86 39 176 89 252 133 207 379 314 608 265 99 -21 97 -22 105 21 22 117 114 273 222 374 201 189 468 259 722 189z"/>
<path d="M40 2740 l0 -110 195 0 195 0 0 110 0 110 -195 0 -195 0 0 -110z"/>
<path d="M341 2230 c-85 -49 -158 -93 -164 -99 -5 -5 11 -42 43 -97 29 -49 54 -91 55 -93 3 -2 332 183 343 193 1 2 -20 40 -48 86 -27 46 -50 87 -50 92 0 18 -31 4 -179 -82z"/>
<path d="M1555 520 c-96 -192 -175 -354 -175 -360 0 -6 45 -10 115 -10 l115 0 175 350 c96 192 175 354 175 360 0 6 -45 10 -115 10 l-115 0 -175 -350z"/>
<path d="M2035 520 c-96 -192 -175 -354 -175 -360 0 -6 45 -10 115 -10 l115 0 175 350 c96 192 175 354 175 360 0 6 -45 10 -115 10 l-115 0 -175 -350z"/>
<path d="M2515 520 c-96 -192 -175 -354 -175 -360 0 -6 45 -10 115 -10 l115 0 175 350 c96 192 175 354 175 360 0 6 -45 10 -115 10 l-115 0 -175 -350z"/>
<path d="M2995 520 c-96 -192 -175 -354 -175 -360 0 -6 45 -10 115 -10 l115 0 175 350 c96 192 175 354 175 360 0 6 -45 10 -115 10 l-115 0 -175 -350z"/>
</g>
</svg>